<svg width="20" height="20" viewBox="0 0 20 20" fill="none" xmlns="http://www.w3.org/2000/svg">
<path d="M1.58953 15.9781C0.785163 12.3024 0.980062 9.02635 1.15903 7.74114C1.17568 7.71595 1.20085 7.68048 1.23717 7.63406C1.35414 7.4846 1.53667 7.28487 1.78747 7.03769C2.28602 6.54634 2.98206 5.93784 3.78031 5.27758C5.37235 3.96075 7.30388 2.49301 8.71338 1.44358C9.50471 0.854403 10.5771 0.851966 11.3704 1.43736C12.7916 2.48603 14.74 3.95532 16.3359 5.27341C17.1363 5.93455 17.8294 6.54239 18.3193 7.03171C18.5661 7.27818 18.7407 7.47427 18.8484 7.61781C18.8707 7.64751 18.8877 7.67181 18.9004 7.69092C18.9923 9.07276 19.1992 12.3443 18.4798 15.9987C18.2981 16.9216 17.9658 17.4738 17.5022 17.8463C17.0136 18.2388 16.2598 18.5282 15.0533 18.6789C14.4473 18.7546 13.8472 18.8168 13.2515 18.8657C11.0555 19.0459 8.91452 19.0447 6.7506 18.8624C6.17709 18.8141 5.60165 18.7531 5.02282 18.6792C3.81968 18.5258 3.0765 18.234 2.59203 17.8409C2.12836 17.4647 1.79272 16.9067 1.58953 15.9781ZM1.13276 7.785C1.13265 7.78503 1.13359 7.78298 1.1359 7.77876C1.13402 7.78285 1.13286 7.78496 1.13276 7.785ZM18.9314 7.74168C18.9347 7.74812 18.9339 7.74746 18.9307 7.74031C18.931 7.7408 18.9312 7.74126 18.9314 7.74168Z" stroke="white" stroke-width="2" stroke-linecap="round" stroke-linejoin="round"/>
</svg>
