<svg xmlns="http://www.w3.org/2000/svg" width="210px" height="210px" viewBox="0 0 70 70" xmlns:xlink="http://www.w3.org/1999/xlink" version="1.1"><g id="qr-qrcode" transform="translate(0,0)"><defs><linearGradient id="g_color1" gradientUnits="objectBoundingBox" x1="0" y1="0" x2="1" y2="0"><stop offset="5%" stop-color="#FFE4AD"/><stop offset="95%" stop-color="#FFFF75"/></linearGradient><linearGradient id="g_color2" gradientUnits="objectBoundingBox" x1="0" y1="0" x2="1" y2="1"><stop offset="5%" stop-color="#5D237F"/><stop offset="95%" stop-color="#6E2B66"/></linearGradient><linearGradient id="g_color4" gradientUnits="objectBoundingBox" x1="0" y1="0" x2="1" y2="0"><stop offset="5%" stop-color="#0D569C"/><stop offset="95%" stop-color="#C10B33"/></linearGradient><linearGradient id="g_color5" gradientUnits="objectBoundingBox" x1="0" y1="1" x2="1" y2="0"><stop offset="5%" stop-color="#19AD39"/><stop offset="95%" stop-color="#407649"/></linearGradient><linearGradient id="g_color6" gradientUnits="objectBoundingBox" x1="0" y1="0" x2="0" y2="1"><stop offset="5%" stop-color="#A01D42"/><stop offset="95%" stop-color="#976305"/></linearGradient></defs><rect fill="url(#g_color1)" width="70px" height="70px" x="0" y="0" class="qr-bg"/><g id="qr-image_bg"/><path id="p0" class="q-sq" d="M 2 1.75 C 2 1.75 2 1.5 2.25 1.5 L 16.25 2 C 16.25 2 16.5 2 16.5 2.25 L 16 16.25 C 16 16.25 16 16.5 15.75 16.5 L 1.75 16 C 1.75 16 1.5 16 1.5 15.75 L 2 1.75M 4.75 4 C 4.75 4 4.5 4 4.5 4.25 L 4 13.25 C 4 13.25 4 13.5 4.25 13.5 L 13.25 14 C 13.25 14 13.5 14 13.5 13.75 L 14 4.75 C 14 4.75 14 4.5 13.75 4.5 L 4.75 4 z" stroke-width="0" fill="url(#g_color6)"/><path id="p1" d="M 18 1.75 C 18 1.75 18 1.5 18.25 1.5 L 24.25 2 C 24.25 2 24.5 2 24.5 2.25 L 24 3.25 C 24 3.25 24 3.5 24.25 3.5 L 26.25 4 C 26.25 4 26.5 4 26.5 4.25 L 26 5.25 C 26 5.25 26 5.5 26.25 5.5 L 27.25 6 C 27.25 6 27.5 6 27.5 5.75 L 28 3.75 C 28 3.75 28 3.5 28.25 3.5 L 29.25 4 C 29.25 4 29.5 4 29.5 3.75 L 30 1.75 C 30 1.75 30 1.5 30.25 1.5 L 32.25 2 C 32.25 2 32.5 2 32.5 2.25 L 32 4.25 C 32 4.25 32 4.5 31.75 4.5 L 30.75 4 C 30.75 4 30.5 4 30.5 4.25 L 30 6.25 C 30 6.25 30 6.5 29.75 6.5 L 28.75 6 C 28.75 6 28.5 6 28.5 6.25 L 28 8.25 C 28 8.25 28 8.5 27.75 8.5 L 24.75 8 C 24.75 8 24.5 8 24.5 8.25 L 24 9.25 C 24 9.25 24 9.5 24.25 9.5 L 26.25 10 C 26.25 10 26.5 10 26.5 10.25 L 26 13.25 C 26 13.25 26 13.5 26.25 13.5 L 27.25 14 C 27.25 14 27.5 14 27.5 13.75 L 28 9.75 C 28 9.75 28 9.5 28.25 9.5 L 33.25 10 C 33.25 10 33.5 10 33.5 9.75 L 34 8.75 C 34 8.75 34 8.5 33.75 8.5 L 31.75 8 C 31.75 8 31.5 8 31.5 7.75 L 32 5.75 C 32 5.75 32 5.5 32.25 5.5 L 33.25 6 C 33.25 6 33.5 6 33.5 5.75 L 34 3.75 C 34 3.75 34 3.5 34.25 3.5 L 35.25 4 C 35.25 4 35.5 4 35.5 3.75 L 36 1.75 C 36 1.75 36 1.5 36.25 1.5 L 38.25 2 C 38.25 2 38.5 2 38.5 2.25 L 38 4.25 C 38 4.25 38 4.5 37.75 4.5 L 36.75 4 C 36.75 4 36.5 4 36.5 4.25 L 36 5.25 C 36 5.25 36 5.5 36.25 5.5 L 39.25 6 C 39.25 6 39.5 6 39.5 5.75 L 40 3.75 C 40 3.75 40 3.5 40.25 3.5 L 42.25 4 C 42.25 4 42.5 4 42.5 4.25 L 42 6.25 C 42 6.25 42 6.5 41.75 6.5 L 40.75 6 C 40.75 6 40.5 6 40.5 6.25 L 40 8.25 C 40 8.25 40 8.5 39.75 8.5 L 36.75 8 C 36.75 8 36.5 8 36.5 8.25 L 36 9.25 C 36 9.25 36 9.5 36.25 9.5 L 42.25 10 C 42.25 10 42.5 10 42.5 10.25 L 42 11.25 C 42 11.25 42 11.5 42.25 11.5 L 43.25 12 C 43.25 12 43.5 12 43.5 11.75 L 44 9.75 C 44 9.75 44 9.5 44.25 9.5 L 45.25 10 C 45.25 10 45.5 10 45.5 9.75 L 46 8.75 C 46 8.75 46 8.5 45.75 8.5 L 43.75 8 C 43.75 8 43.5 8 43.5 7.75 L 44 5.75 C 44 5.75 44 5.5 44.25 5.5 L 45.25 6 C 45.25 6 45.5 6 45.5 5.75 L 46 3.75 C 46 3.75 46 3.5 46.25 3.5 L 47.25 4 C 47.25 4 47.5 4 47.5 3.75 L 48 1.75 C 48 1.75 48 1.5 48.25 1.5 L 52.25 2 C 52.25 2 52.5 2 52.5 2.25 L 52 10.25 C 52 10.25 52 10.5 51.75 10.5 L 46.75 10 C 46.75 10 46.5 10 46.5 10.25 L 46 12.25 C 46 12.25 46 12.5 45.75 12.5 L 44.75 12 C 44.75 12 44.5 12 44.5 12.25 L 44 15.25 C 44 15.25 44 15.5 44.25 15.5 L 45.25 16 C 45.25 16 45.5 16 45.5 15.75 L 46 13.75 C 46 13.75 46 13.5 46.25 13.5 L 47.25 14 C 47.25 14 47.5 14 47.5 13.75 L 48 11.75 C 48 11.75 48 11.5 48.25 11.5 L 52.25 12 C 52.25 12 52.5 12 52.5 12.25 L 52 16.25 C 52 16.25 52 16.5 51.75 16.5 L 50.75 16 C 50.75 16 50.5 16 50.5 16.25 L 50 17.25 C 50 17.25 50 17.5 50.25 17.5 L 58.25 18 C 58.25 18 58.5 18 58.5 18.25 L 58 20.25 C 58 20.25 58 20.5 57.75 20.5 L 56.75 20 C 56.75 20 56.5 20 56.5 20.25 L 56 21.25 C 56 21.25 56 21.5 56.25 21.5 L 58.25 22 C 58.25 22 58.5 22 58.5 22.25 L 58 24.25 C 58 24.25 58 24.5 57.75 24.5 L 55.75 24 C 55.75 24 55.5 24 55.5 23.75 L 56 22.75 C 56 22.75 56 22.5 55.75 22.5 L 54.75 22 C 54.75 22 54.5 22 54.5 22.25 L 54 26.25 C 54 26.25 54 26.5 53.75 26.5 L 52.75 26 C 52.75 26 52.5 26 52.5 26.25 L 52 28.25 C 52 28.25 52 28.5 51.75 28.5 L 50.75 28 C 50.75 28 50.5 28 50.5 28.25 L 50 29.25 C 50 29.25 50 29.5 50.25 29.5 L 53.25 30 C 53.25 30 53.5 30 53.5 29.75 L 54 27.75 C 54 27.75 54 27.5 54.25 27.5 L 58.25 28 C 58.25 28 58.5 28 58.5 28.25 L 58 30.25 C 58 30.25 58 30.5 57.75 30.5 L 54.75 30 C 54.75 30 54.5 30 54.5 30.25 L 54 31.25 C 54 31.25 54 31.5 54.25 31.5 L 58.25 32 C 58.25 32 58.5 32 58.5 32.25 L 58 33.25 C 58 33.25 58 33.5 58.25 33.5 L 60.25 34 C 60.25 34 60.5 34 60.5 34.25 L 60 36.25 C 60 36.25 60 36.5 59.75 36.5 L 56.75 36 C 56.75 36 56.5 36 56.5 36.25 L 56 41.25 C 56 41.25 56 41.5 56.25 41.5 L 57.25 42 C 57.25 42 57.5 42 57.5 41.75 L 58 37.75 C 58 37.75 58 37.5 58.25 37.5 L 60.25 38 C 60.25 38 60.5 38 60.5 38.25 L 60 39.25 C 60 39.25 60 39.5 60.25 39.5 L 61.25 40 C 61.25 40 61.5 40 61.5 39.75 L 62 37.75 C 62 37.75 62 37.5 62.25 37.5 L 65.25 38 C 65.25 38 65.5 38 65.5 37.75 L 66 34.75 C 66 34.75 66 34.5 65.75 34.5 L 64.75 34 C 64.75 34 64.5 34 64.5 34.25 L 64 36.25 C 64 36.25 64 36.5 63.75 36.5 L 61.75 36 C 61.75 36 61.5 36 61.5 35.75 L 62 30.75 C 62 30.75 62 30.5 61.75 30.5 L 59.75 30 C 59.75 30 59.5 30 59.5 29.75 L 60 27.75 C 60 27.75 60 27.5 60.25 27.5 L 62.25 28 C 62.25 28 62.5 28 62.5 28.25 L 62 29.25 C 62 29.25 62 29.5 62.25 29.5 L 65.25 30 C 65.25 30 65.5 30 65.5 29.75 L 66 28.75 C 66 28.75 66 28.5 65.75 28.5 L 63.75 28 C 63.75 28 63.5 28 63.5 27.75 L 64 26.75 C 64 26.75 64 26.5 63.75 26.5 L 59.75 26 C 59.75 26 59.5 26 59.5 25.75 L 60 19.75 C 60 19.75 60 19.5 60.25 19.5 L 61.25 20 C 61.25 20 61.5 20 61.5 19.75 L 62 17.75 C 62 17.75 62 17.5 62.25 17.5 L 68.25 18 C 68.25 18 68.5 18 68.5 18.25 L 68 22.25 C 68 22.25 68 22.5 67.75 22.5 L 65.75 22 C 65.75 22 65.5 22 65.5 21.75 L 66 20.75 C 66 20.75 66 20.5 65.75 20.5 L 62.75 20 C 62.75 20 62.5 20 62.5 20.25 L 62 23.25 C 62 23.25 62 23.5 62.25 23.5 L 64.25 24 C 64.25 24 64.5 24 64.5 24.25 L 64 25.25 C 64 25.25 64 25.5 64.25 25.5 L 66.25 26 C 66.25 26 66.5 26 66.5 26.25 L 66 27.25 C 66 27.25 66 27.5 66.25 27.5 L 68.25 28 C 68.25 28 68.5 28 68.5 28.25 L 68 30.25 C 68 30.25 68 30.5 67.75 30.5 L 66.75 30 C 66.75 30 66.5 30 66.5 30.25 L 66 31.25 C 66 31.25 66 31.5 66.25 31.5 L 68.25 32 C 68.25 32 68.5 32 68.5 32.25 L 68 38.25 C 68 38.25 68 38.5 67.75 38.5 L 66.75 38 C 66.75 38 66.5 38 66.5 38.25 L 66 42.25 C 66 42.25 66 42.5 65.75 42.5 L 62.75 42 C 62.75 42 62.5 42 62.5 42.25 L 62 46.25 C 62 46.25 62 46.5 61.75 46.5 L 59.75 46 C 59.75 46 59.5 46 59.5 45.75 L 60 44.75 C 60 44.75 60 44.5 59.75 44.5 L 52.75 44 C 52.75 44 52.5 44 52.5 44.25 L 52 46.25 C 52 46.25 52 46.5 51.75 46.5 L 49.75 46 C 49.75 46 49.5 46 49.5 45.75 L 50 43.75 C 50 43.75 50 43.5 50.25 43.5 L 51.25 44 C 51.25 44 51.5 44 51.5 43.75 L 52 42.75 C 52 42.75 52 42.5 51.75 42.5 L 48.75 42 C 48.75 42 48.5 42 48.5 42.25 L 48 44.25 C 48 44.25 48 44.5 47.75 44.5 L 45.75 44 C 45.75 44 45.5 44 45.5 43.75 L 46 42.75 C 46 42.75 46 42.5 45.75 42.5 L 43.75 42 C 43.75 42 43.5 42 43.5 41.75 L 44 40.75 C 44 40.75 44 40.5 43.75 40.5 L 40.75 40 C 40.75 40 40.5 40 40.5 40.25 L 40 41.25 C 40 41.25 40 41.5 40.25 41.5 L 42.25 42 C 42.25 42 42.5 42 42.5 42.25 L 42 44.25 C 42 44.25 42 44.5 41.75 44.5 L 39.75 44 C 39.75 44 39.5 44 39.5 43.75 L 40 42.75 C 40 42.75 40 42.5 39.75 42.5 L 38.75 42 C 38.75 42 38.5 42 38.5 42.25 L 38 45.25 C 38 45.25 38 45.5 38.25 45.5 L 40.25 46 C 40.25 46 40.5 46 40.5 46.25 L 40 47.25 C 40 47.25 40 47.5 40.25 47.5 L 42.25 48 C 42.25 48 42.5 48 42.5 48.25 L 42 49.25 C 42 49.25 42 49.5 42.25 49.5 L 43.25 50 C 43.25 50 43.5 50 43.5 49.75 L 44 45.75 C 44 45.75 44 45.5 44.25 45.5 L 46.25 46 C 46.25 46 46.5 46 46.5 46.25 L 46 47.25 C 46 47.25 46 47.5 46.25 47.5 L 48.25 48 C 48.25 48 48.5 48 48.5 48.25 L 48 52.25 C 48 52.25 48 52.5 47.75 52.5 L 45.75 52 C 45.75 52 45.5 52 45.5 51.75 L 46 50.75 C 46 50.75 46 50.5 45.75 50.5 L 44.75 50 C 44.75 50 44.5 50 44.5 50.25 L 44 52.25 C 44 52.25 44 52.5 43.75 52.5 L 40.75 52 C 40.75 52 40.5 52 40.5 52.25 L 40 53.25 C 40 53.25 40 53.5 40.25 53.5 L 44.25 54 C 44.25 54 44.5 54 44.5 54.25 L 44 57.25 C 44 57.25 44 57.5 44.25 57.5 L 47.25 58 C 47.25 58 47.5 58 47.5 57.75 L 48 56.75 C 48 56.75 48 56.5 47.75 56.5 L 45.75 56 C 45.75 56 45.5 56 45.5 55.75 L 46 53.75 C 46 53.75 46 53.5 46.25 53.5 L 49.25 54 C 49.25 54 49.5 54 49.5 53.75 L 50 47.75 C 50 47.75 50 47.5 50.25 47.5 L 52.25 48 C 52.25 48 52.5 48 52.5 48.25 L 52 49.25 C 52 49.25 52 49.5 52.25 49.5 L 57.25 50 C 57.25 50 57.5 50 57.5 49.75 L 58 47.75 C 58 47.75 58 47.5 58.25 47.5 L 63.25 48 C 63.25 48 63.5 48 63.5 47.75 L 64 45.75 C 64 45.75 64 45.5 64.25 45.5 L 65.25 46 C 65.25 46 65.5 46 65.5 45.75 L 66 43.75 C 66 43.75 66 43.5 66.25 43.5 L 68.25 44 C 68.25 44 68.5 44 68.5 44.25 L 68 46.25 C 68 46.25 68 46.5 67.75 46.5 L 66.75 46 C 66.75 46 66.5 46 66.5 46.25 L 66 49.25 C 66 49.25 66 49.5 66.25 49.5 L 68.25 50 C 68.25 50 68.5 50 68.5 50.25 L 68 54.25 C 68 54.25 68 54.5 67.75 54.5 L 66.75 54 C 66.75 54 66.5 54 66.5 54.25 L 66 55.25 C 66 55.25 66 55.5 66.25 55.5 L 68.25 56 C 68.25 56 68.5 56 68.5 56.25 L 68 60.25 C 68 60.25 68 60.5 67.75 60.5 L 66.75 60 C 66.75 60 66.5 60 66.5 60.25 L 66 62.25 C 66 62.25 66 62.5 65.75 62.5 L 63.75 62 C 63.75 62 63.5 62 63.5 61.75 L 64 58.75 C 64 58.75 64 58.5 63.75 58.5 L 60.75 58 C 60.75 58 60.5 58 60.5 58.25 L 60 59.25 C 60 59.25 60 59.5 60.25 59.5 L 62.25 60 C 62.25 60 62.5 60 62.5 60.25 L 62 62.25 C 62 62.25 62 62.5 61.75 62.5 L 57.75 62 C 57.75 62 57.5 62 57.5 61.75 L 58 60.75 C 58 60.75 58 60.5 57.75 60.5 L 54.75 60 C 54.75 60 54.5 60 54.5 60.25 L 54 61.25 C 54 61.25 54 61.5 54.25 61.5 L 56.25 62 C 56.25 62 56.5 62 56.5 62.25 L 56 63.25 C 56 63.25 56 63.5 56.25 63.5 L 58.25 64 C 58.25 64 58.5 64 58.5 64.25 L 58 66.25 C 58 66.25 58 66.5 57.75 66.5 L 56.75 66 C 56.75 66 56.5 66 56.5 66.25 L 56 68.25 C 56 68.25 56 68.5 55.75 68.5 L 45.75 68 C 45.75 68 45.5 68 45.5 67.75 L 46 66.75 C 46 66.75 46 66.5 45.75 66.5 L 44.75 66 C 44.75 66 44.5 66 44.5 66.25 L 44 68.25 C 44 68.25 44 68.5 43.75 68.5 L 39.75 68 C 39.75 68 39.5 68 39.5 67.75 L 40 66.75 C 40 66.75 40 66.5 39.75 66.5 L 36.75 66 C 36.75 66 36.5 66 36.5 66.25 L 36 68.25 C 36 68.25 36 68.5 35.75 68.5 L 33.75 68 C 33.75 68 33.5 68 33.5 67.75 L 34 61.75 C 34 61.75 34 61.5 34.25 61.5 L 36.25 62 C 36.25 62 36.5 62 36.5 62.25 L 36 63.25 C 36 63.25 36 63.5 36.25 63.5 L 40.25 64 C 40.25 64 40.5 64 40.5 64.25 L 40 65.25 C 40 65.25 40 65.5 40.25 65.5 L 43.25 66 C 43.25 66 43.5 66 43.5 65.75 L 44 64.75 C 44 64.75 44 64.5 43.75 64.5 L 41.75 64 C 41.75 64 41.5 64 41.5 63.75 L 42 59.75 C 42 59.75 42 59.5 42.25 59.5 L 43.25 60 C 43.25 60 43.5 60 43.5 59.75 L 44 58.75 C 44 58.75 44 58.5 43.75 58.5 L 39.75 58 C 39.75 58 39.5 58 39.5 57.75 L 40 56.75 C 40 56.75 40 56.5 39.75 56.5 L 37.75 56 C 37.75 56 37.5 56 37.5 55.75 L 38 52.75 C 38 52.75 38 52.5 37.75 52.5 L 35.75 52 C 35.75 52 35.5 52 35.5 51.75 L 36 46.75 C 36 46.75 36 46.5 35.75 46.5 L 34.75 46 C 34.75 46 34.5 46 34.5 46.25 L 34 48.25 C 34 48.25 34 48.5 33.75 48.5 L 32.75 48 C 32.75 48 32.5 48 32.5 48.25 L 32 53.25 C 32 53.25 32 53.5 32.25 53.5 L 36.25 54 C 36.25 54 36.5 54 36.5 54.25 L 36 56.25 C 36 56.25 36 56.5 35.75 56.5 L 34.75 56 C 34.75 56 34.5 56 34.5 56.25 L 34 57.25 C 34 57.25 34 57.5 34.25 57.5 L 36.25 58 C 36.25 58 36.5 58 36.5 58.25 L 36 60.25 C 36 60.25 36 60.5 35.75 60.5 L 31.75 60 C 31.75 60 31.5 60 31.5 59.75 L 32 58.75 C 32 58.75 32 58.5 31.75 58.5 L 28.75 58 C 28.75 58 28.5 58 28.5 58.25 L 28 61.25 C 28 61.25 28 61.5 28.25 61.5 L 30.25 62 C 30.25 62 30.5 62 30.5 62.25 L 30 64.25 C 30 64.25 30 64.5 29.75 64.5 L 28.75 64 C 28.75 64 28.5 64 28.5 64.25 L 28 68.25 C 28 68.25 28 68.5 27.75 68.5 L 23.75 68 C 23.75 68 23.5 68 23.5 67.75 L 24 63.75 C 24 63.75 24 63.5 24.25 63.5 L 25.25 64 C 25.25 64 25.5 64 25.5 63.75 L 26 58.75 C 26 58.75 26 58.5 25.75 58.5 L 24.75 58 C 24.75 58 24.5 58 24.5 58.25 L 24 60.25 C 24 60.25 24 60.5 23.75 60.5 L 20.75 60 C 20.75 60 20.5 60 20.5 60.25 L 20 64.25 C 20 64.25 20 64.5 19.75 64.5 L 17.75 64 C 17.75 64 17.5 64 17.5 63.75 L 18 57.75 C 18 57.75 18 57.5 18.25 57.5 L 21.25 58 C 21.25 58 21.5 58 21.5 57.75 L 22 55.75 C 22 55.75 22 55.5 22.25 55.5 L 31.25 56 C 31.25 56 31.5 56 31.5 55.75 L 32 54.75 C 32 54.75 32 54.5 31.75 54.5 L 29.75 54 C 29.75 54 29.5 54 29.5 53.75 L 30 52.75 C 30 52.75 30 52.5 29.75 52.5 L 28.75 52 C 28.75 52 28.5 52 28.5 52.25 L 28 54.25 C 28 54.25 28 54.5 27.75 54.5 L 25.75 54 C 25.75 54 25.5 54 25.5 53.75 L 26 52.75 C 26 52.75 26 52.5 25.75 52.5 L 20.75 52 C 20.75 52 20.5 52 20.5 52.25 L 20 54.25 C 20 54.25 20 54.5 19.75 54.5 L 17.75 54 C 17.75 54 17.5 54 17.5 53.75 L 18 52.75 C 18 52.75 18 52.5 17.75 52.5 L 13.75 52 C 13.75 52 13.5 52 13.5 51.75 L 14 50.75 C 14 50.75 14 50.5 13.75 50.5 L 12.75 50 C 12.75 50 12.5 50 12.5 50.25 L 12 52.25 C 12 52.25 12 52.5 11.75 52.5 L 9.75 52 C 9.75 52 9.5 52 9.5 51.75 L 10 50.75 C 10 50.75 10 50.5 9.75 50.5 L 8.75 50 C 8.75 50 8.5 50 8.5 50.25 L 8 52.25 C 8 52.25 8 52.5 7.75 52.5 L 5.75 52 C 5.75 52 5.5 52 5.5 51.75 L 6 49.75 C 6 49.75 6 49.5 6.25 49.5 L 7.25 50 C 7.25 50 7.5 50 7.5 49.75 L 8 46.75 C 8 46.75 8 46.5 7.75 46.5 L 4.75 46 C 4.75 46 4.5 46 4.5 46.25 L 4 52.25 C 4 52.25 4 52.5 3.75 52.5 L 1.75 52 C 1.75 52 1.5 52 1.5 51.75 L 2 43.75 C 2 43.75 2 43.5 2.25 43.5 L 3.25 44 C 3.25 44 3.5 44 3.5 43.75 L 4 42.75 C 4 42.75 4 42.5 3.75 42.5 L 1.75 42 C 1.75 42 1.5 42 1.5 41.75 L 2 39.75 C 2 39.75 2 39.5 2.25 39.5 L 3.25 40 C 3.25 40 3.5 40 3.5 39.75 L 4 38.75 C 4 38.75 4 38.5 3.75 38.5 L 1.75 38 C 1.75 38 1.5 38 1.5 37.75 L 2 35.75 C 2 35.75 2 35.5 2.25 35.5 L 6.25 36 C 6.25 36 6.5 36 6.5 36.25 L 6 40.25 C 6 40.25 6 40.5 5.75 40.5 L 4.75 40 C 4.75 40 4.5 40 4.5 40.25 L 4 41.25 C 4 41.25 4 41.5 4.25 41.5 L 6.25 42 C 6.25 42 6.5 42 6.5 42.25 L 6 43.25 C 6 43.25 6 43.5 6.25 43.5 L 9.25 44 C 9.25 44 9.5 44 9.5 43.75 L 10 41.75 C 10 41.75 10 41.5 10.25 41.5 L 17.25 42 C 17.25 42 17.5 42 17.5 41.75 L 18 39.75 C 18 39.75 18 39.5 18.25 39.5 L 21.25 40 C 21.25 40 21.5 40 21.5 39.75 L 22 37.75 C 22 37.75 22 37.5 22.25 37.5 L 23.25 38 C 23.25 38 23.5 38 23.5 37.75 L 24 36.75 C 24 36.75 24 36.5 23.75 36.5 L 18.75 36 C 18.75 36 18.5 36 18.5 36.25 L 18 38.25 C 18 38.25 18 38.5 17.75 38.5 L 16.75 38 C 16.75 38 16.5 38 16.5 38.25 L 16 40.25 C 16 40.25 16 40.5 15.75 40.5 L 13.75 40 C 13.75 40 13.5 40 13.5 39.75 L 14 38.75 C 14 38.75 14 38.5 13.75 38.5 L 11.75 38 C 11.75 38 11.5 38 11.5 37.75 L 12 34.75 C 12 34.75 12 34.5 11.75 34.5 L 9.75 34 C 9.75 34 9.5 34 9.5 33.75 L 10 32.75 C 10 32.75 10 32.5 9.75 32.5 L 7.75 32 C 7.75 32 7.5 32 7.5 31.75 L 8 30.75 C 8 30.75 8 30.5 7.75 30.5 L 4.75 30 C 4.75 30 4.5 30 4.5 30.25 L 4 34.25 C 4 34.25 4 34.5 3.75 34.5 L 1.75 34 C 1.75 34 1.5 34 1.5 33.75 L 2 25.75 C 2 25.75 2 25.5 2.25 25.5 L 3.25 26 C 3.25 26 3.5 26 3.5 25.75 L 4 23.75 C 4 23.75 4 23.5 4.25 23.5 L 5.25 24 C 5.25 24 5.5 24 5.5 23.75 L 6 22.75 C 6 22.75 6 22.5 5.75 22.5 L 3.75 22 C 3.75 22 3.5 22 3.5 21.75 L 4 19.75 C 4 19.75 4 19.5 4.25 19.5 L 5.25 20 C 5.25 20 5.5 20 5.5 19.75 L 6 17.75 C 6 17.75 6 17.5 6.25 17.5 L 12.25 18 C 12.25 18 12.5 18 12.5 18.25 L 12 19.25 C 12 19.25 12 19.5 12.25 19.5 L 13.25 20 C 13.25 20 13.5 20 13.5 19.75 L 14 17.75 C 14 17.75 14 17.5 14.25 17.5 L 16.25 18 C 16.25 18 16.5 18 16.5 18.25 L 16 20.25 C 16 20.25 16 20.5 15.75 20.5 L 14.75 20 C 14.75 20 14.5 20 14.5 20.25 L 14 21.25 C 14 21.25 14 21.5 14.25 21.5 L 16.25 22 C 16.25 22 16.5 22 16.5 22.25 L 16 24.25 C 16 24.25 16 24.5 15.75 24.5 L 14.75 24 C 14.75 24 14.5 24 14.5 24.25 L 14 25.25 C 14 25.25 14 25.5 14.25 25.5 L 19.25 26 C 19.25 26 19.5 26 19.5 25.75 L 20 20.75 C 20 20.75 20 20.5 19.75 20.5 L 17.75 20 C 17.75 20 17.5 20 17.5 19.75 L 18 11.75 C 18 11.75 18 11.5 18.25 11.5 L 19.25 12 C 19.25 12 19.5 12 19.5 11.75 L 20 8.75 C 20 8.75 20 8.5 19.75 8.5 L 17.75 8 C 17.75 8 17.5 8 17.5 7.75 L 18 1.75M 20.75 4 C 20.75 4 20.5 4 20.5 4.25 L 20 5.25 C 20 5.25 20 5.5 20.25 5.5 L 23.25 6 C 23.25 6 23.5 6 23.5 5.75 L 24 4.75 C 24 4.75 24 4.5 23.75 4.5 L 20.75 4M 48.75 4 C 48.75 4 48.5 4 48.5 4.25 L 48 5.25 C 48 5.25 48 5.5 48.25 5.5 L 49.25 6 C 49.25 6 49.5 6 49.5 5.75 L 50 4.75 C 50 4.75 50 4.5 49.75 4.5 L 48.75 4M 34.75 10 C 34.75 10 34.5 10 34.5 10.25 L 34 12.25 C 34 12.25 34 12.5 33.75 12.5 L 30.75 12 C 30.75 12 30.5 12 30.5 12.25 L 30 13.25 C 30 13.25 30 13.5 30.25 13.5 L 32.25 14 C 32.25 14 32.5 14 32.5 14.25 L 32 15.25 C 32 15.25 32 15.5 32.25 15.5 L 33.25 16 C 33.25 16 33.5 16 33.5 15.75 L 34 13.75 C 34 13.75 34 13.5 34.25 13.5 L 36.25 14 C 36.25 14 36.5 14 36.5 14.25 L 36 15.25 C 36 15.25 36 15.5 36.25 15.5 L 37.25 16 C 37.25 16 37.5 16 37.5 15.75 L 38 13.75 C 38 13.75 38 13.5 38.25 13.5 L 39.25 14 C 39.25 14 39.5 14 39.5 13.75 L 40 12.75 C 40 12.75 40 12.5 39.75 12.5 L 35.75 12 C 35.75 12 35.5 12 35.5 11.75 L 36 10.75 C 36 10.75 36 10.5 35.75 10.5 L 34.75 10M 20.75 12 C 20.75 12 20.5 12 20.5 12.25 L 20 15.25 C 20 15.25 20 15.5 20.25 15.5 L 21.25 16 C 21.25 16 21.5 16 21.5 15.75 L 22 12.75 C 22 12.75 22 12.5 21.75 12.5 L 20.75 12M 24.75 14 C 24.75 14 24.5 14 24.5 14.25 L 24 15.25 C 24 15.25 24 15.5 24.25 15.5 L 25.25 16 C 25.25 16 25.5 16 25.5 15.75 L 26 14.75 C 26 14.75 26 14.5 25.75 14.5 L 24.75 14M 28.75 14 C 28.75 14 28.5 14 28.5 14.25 L 28 15.25 C 28 15.25 28 15.5 28.25 15.5 L 29.25 16 C 29.25 16 29.5 16 29.5 15.75 L 30 14.75 C 30 14.75 30 14.5 29.75 14.5 L 28.75 14M 40.75 14 C 40.75 14 40.5 14 40.5 14.25 L 40 17.25 C 40 17.25 40 17.5 40.25 17.5 L 41.25 18 C 41.25 18 41.5 18 41.5 17.75 L 42 14.75 C 42 14.75 42 14.5 41.75 14.5 L 40.75 14M 48.75 14 C 48.75 14 48.5 14 48.5 14.25 L 48 15.25 C 48 15.25 48 15.5 48.25 15.5 L 49.25 16 C 49.25 16 49.5 16 49.5 15.75 L 50 14.75 C 50 14.75 50 14.5 49.75 14.5 L 48.75 14M 26.75 16 C 26.75 16 26.5 16 26.5 16.25 L 26 17.25 C 26 17.25 26 17.5 26.25 17.5 L 27.25 18 C 27.25 18 27.5 18 27.5 17.75 L 28 16.75 C 28 16.75 28 16.5 27.75 16.5 L 26.75 16M 30.75 16 C 30.75 16 30.5 16 30.5 16.25 L 30 17.25 C 30 17.25 30 17.5 30.25 17.5 L 31.25 18 C 31.25 18 31.5 18 31.5 17.75 L 32 16.75 C 32 16.75 32 16.5 31.75 16.5 L 30.75 16M 34.75 16 C 34.75 16 34.5 16 34.5 16.25 L 34 18.25 C 34 18.25 34 18.5 33.75 18.5 L 32.75 18 C 32.75 18 32.5 18 32.5 18.25 L 32 21.25 C 32 21.25 32 21.5 32.25 21.5 L 33.25 22 C 33.25 22 33.5 22 33.5 21.75 L 34 19.75 C 34 19.75 34 19.5 34.25 19.5 L 39.25 20 C 39.25 20 39.5 20 39.5 19.75 L 40 18.75 C 40 18.75 40 18.5 39.75 18.5 L 35.75 18 C 35.75 18 35.5 18 35.5 17.75 L 36 16.75 C 36 16.75 36 16.5 35.75 16.5 L 34.75 16M 20.75 18 C 20.75 18 20.5 18 20.5 18.25 L 20 19.25 C 20 19.25 20 19.5 20.25 19.5 L 22.25 20 C 22.25 20 22.5 20 22.5 20.25 L 22 23.25 C 22 23.25 22 23.5 22.25 23.5 L 23.25 24 C 23.25 24 23.5 24 23.5 23.75 L 24 19.75 C 24 19.75 24 19.5 24.25 19.5 L 25.25 20 C 25.25 20 25.5 20 25.5 19.75 L 26 18.75 C 26 18.75 26 18.5 25.75 18.5 L 20.75 18M 44.75 18 C 44.75 18 44.5 18 44.5 18.25 L 44 19.25 C 44 19.25 44 19.5 44.25 19.5 L 45.25 20 C 45.25 20 45.5 20 45.5 19.75 L 46 18.75 C 46 18.75 46 18.5 45.75 18.5 L 44.75 18M 8.75 20 C 8.75 20 8.5 20 8.5 20.25 L 8 21.25 C 8 21.25 8 21.5 8.25 21.5 L 9.25 22 C 9.25 22 9.5 22 9.5 21.75 L 10 20.75 C 10 20.75 10 20.5 9.75 20.5 L 8.75 20M 26.75 20 C 26.75 20 26.5 20 26.5 20.25 L 26 21.25 C 26 21.25 26 21.5 26.25 21.5 L 28.25 22 C 28.25 22 28.5 22 28.5 22.25 L 28 38.25 C 28 38.25 28 38.5 27.75 38.5 L 26.75 38 C 26.75 38 26.5 38 26.5 38.25 L 26 39.25 C 26 39.25 26 39.5 26.25 39.5 L 28.25 40 C 28.25 40 28.5 40 28.5 40.25 L 28 41.25 C 28 41.25 28 41.5 28.25 41.5 L 29.25 42 C 29.25 42 29.5 42 29.5 41.75 L 30 23.75 C 30 23.75 30 23.5 30.25 23.5 L 31.25 24 C 31.25 24 31.5 24 31.5 23.75 L 32 22.75 C 32 22.75 32 22.5 31.75 22.5 L 29.75 22 C 29.75 22 29.5 22 29.5 21.75 L 30 20.75 C 30 20.75 30 20.5 29.75 20.5 L 26.75 20M 40.75 20 C 40.75 20 40.5 20 40.5 20.25 L 40 22.25 C 40 22.25 40 22.5 39.75 22.5 L 38.75 22 C 38.75 22 38.5 22 38.5 22.25 L 38 23.25 C 38 23.25 38 23.5 38.25 23.5 L 41.25 24 C 41.25 24 41.5 24 41.5 23.75 L 42 20.75 C 42 20.75 42 20.5 41.75 20.5 L 40.75 20M 46.75 20 C 46.75 20 46.5 20 46.5 20.25 L 46 23.25 C 46 23.25 46 23.5 46.25 23.5 L 48.25 24 C 48.25 24 48.5 24 48.5 24.25 L 48 25.25 C 48 25.25 48 25.5 48.25 25.5 L 49.25 26 C 49.25 26 49.5 26 49.5 25.75 L 50 23.75 C 50 23.75 50 23.5 50.25 23.5 L 51.25 24 C 51.25 24 51.5 24 51.5 23.75 L 52 20.75 C 52 20.75 52 20.5 51.75 20.5 L 50.75 20 C 50.75 20 50.5 20 50.5 20.25 L 50 22.25 C 50 22.25 50 22.5 49.75 22.5 L 47.75 22 C 47.75 22 47.5 22 47.5 21.75 L 48 20.75 C 48 20.75 48 20.5 47.75 20.5 L 46.75 20M 12.75 22 C 12.75 22 12.5 22 12.5 22.25 L 12 23.25 C 12 23.25 12 23.5 12.25 23.5 L 13.25 24 C 13.25 24 13.5 24 13.5 23.75 L 14 22.75 C 14 22.75 14 22.5 13.75 22.5 L 12.75 22M 8.75 24 C 8.75 24 8.5 24 8.5 24.25 L 8 25.25 C 8 25.25 8 25.5 8.25 25.5 L 11.25 26 C 11.25 26 11.5 26 11.5 25.75 L 12 24.75 C 12 24.75 12 24.5 11.75 24.5 L 8.75 24M 24.75 24 C 24.75 24 24.5 24 24.5 24.25 L 24 25.25 C 24 25.25 24 25.5 24.25 25.5 L 25.25 26 C 25.25 26 25.5 26 25.5 25.75 L 26 24.75 C 26 24.75 26 24.5 25.75 24.5 L 24.75 24M 32.75 24 C 32.75 24 32.5 24 32.5 24.25 L 32 25.25 C 32 25.25 32 25.5 32.25 25.5 L 34.25 26 C 34.25 26 34.5 26 34.5 26.25 L 34 28.25 C 34 28.25 34 28.5 33.75 28.5 L 32.75 28 C 32.75 28 32.5 28 32.5 28.25 L 32 35.25 C 32 35.25 32 35.5 32.25 35.5 L 34.25 36 C 34.25 36 34.5 36 34.5 36.25 L 34 37.25 C 34 37.25 34 37.5 34.25 37.5 L 37.25 38 C 37.25 38 37.5 38 37.5 37.75 L 38 36.75 C 38 36.75 38 36.5 37.75 36.5 L 35.75 36 C 35.75 36 35.5 36 35.5 35.75 L 36 31.75 C 36 31.75 36 31.5 36.25 31.5 L 37.25 32 C 37.25 32 37.5 32 37.5 31.75 L 38 26.75 C 38 26.75 38 26.5 37.75 26.5 L 35.75 26 C 35.75 26 35.5 26 35.5 25.75 L 36 24.75 C 36 24.75 36 24.5 35.75 24.5 L 32.75 24M 42.75 24 C 42.75 24 42.5 24 42.5 24.25 L 42 25.25 C 42 25.25 42 25.5 42.25 25.5 L 43.25 26 C 43.25 26 43.5 26 43.5 25.75 L 44 24.75 C 44 24.75 44 24.5 43.75 24.5 L 42.75 24M 4.75 26 C 4.75 26 4.5 26 4.5 26.25 L 4 27.25 C 4 27.25 4 27.5 4.25 27.5 L 5.25 28 C 5.25 28 5.5 28 5.5 27.75 L 6 26.75 C 6 26.75 6 26.5 5.75 26.5 L 4.75 26M 12.75 26 C 12.75 26 12.5 26 12.5 26.25 L 12 27.25 C 12 27.25 12 27.5 12.25 27.5 L 13.25 28 C 13.25 28 13.5 28 13.5 27.75 L 14 26.75 C 14 26.75 14 26.5 13.75 26.5 L 12.75 26M 22.75 26 C 22.75 26 22.5 26 22.5 26.25 L 22 27.25 C 22 27.25 22 27.5 22.25 27.5 L 23.25 28 C 23.25 28 23.5 28 23.5 27.75 L 24 26.75 C 24 26.75 24 26.5 23.75 26.5 L 22.75 26M 46.75 26 C 46.75 26 46.5 26 46.5 26.25 L 46 27.25 C 46 27.25 46 27.5 46.25 27.5 L 47.25 28 C 47.25 28 47.5 28 47.5 27.75 L 48 26.75 C 48 26.75 48 26.5 47.75 26.5 L 46.75 26M 8.75 28 C 8.75 28 8.5 28 8.5 28.25 L 8 29.25 C 8 29.25 8 29.5 8.25 29.5 L 11.25 30 C 11.25 30 11.5 30 11.5 29.75 L 12 28.75 C 12 28.75 12 28.5 11.75 28.5 L 8.75 28M 14.75 28 C 14.75 28 14.5 28 14.5 28.25 L 14 29.25 C 14 29.25 14 29.5 14.25 29.5 L 17.25 30 C 17.25 30 17.5 30 17.5 29.75 L 18 28.75 C 18 28.75 18 28.5 17.75 28.5 L 14.75 28M 20.75 28 C 20.75 28 20.5 28 20.5 28.25 L 20 30.25 C 20 30.25 20 30.5 19.75 30.5 L 18.75 30 C 18.75 30 18.5 30 18.5 30.25 L 18 31.25 C 18 31.25 18 31.5 18.25 31.5 L 20.25 32 C 20.25 32 20.5 32 20.5 32.25 L 20 33.25 C 20 33.25 20 33.5 20.25 33.5 L 21.25 34 C 21.25 34 21.5 34 21.5 33.75 L 22 31.75 C 22 31.75 22 31.5 22.25 31.5 L 23.25 32 C 23.25 32 23.5 32 23.5 31.75 L 24 30.75 C 24 30.75 24 30.5 23.75 30.5 L 21.75 30 C 21.75 30 21.5 30 21.5 29.75 L 22 28.75 C 22 28.75 22 28.5 21.75 28.5 L 20.75 28M 44.75 28 C 44.75 28 44.5 28 44.5 28.25 L 44 30.25 C 44 30.25 44 30.5 43.75 30.5 L 40.75 30 C 40.75 30 40.5 30 40.5 30.25 L 40 31.25 C 40 31.25 40 31.5 40.25 31.5 L 42.25 32 C 42.25 32 42.5 32 42.5 32.25 L 42 33.25 C 42 33.25 42 33.5 42.25 33.5 L 43.25 34 C 43.25 34 43.5 34 43.5 33.75 L 44 31.75 C 44 31.75 44 31.5 44.25 31.5 L 45.25 32 C 45.25 32 45.5 32 45.5 31.75 L 46 28.75 C 46 28.75 46 28.5 45.75 28.5 L 44.75 28M 12.75 30 C 12.75 30 12.5 30 12.5 30.25 L 12 33.25 C 12 33.25 12 33.5 12.25 33.5 L 15.25 34 C 15.25 34 15.5 34 15.5 33.75 L 16 32.75 C 16 32.75 16 32.5 15.75 32.5 L 13.75 32 C 13.75 32 13.5 32 13.5 31.75 L 14 30.75 C 14 30.75 14 30.5 13.75 30.5 L 12.75 30M 48.75 30 C 48.75 30 48.5 30 48.5 30.25 L 48 34.25 C 48 34.25 48 34.5 47.75 34.5 L 44.75 34 C 44.75 34 44.5 34 44.5 34.25 L 44 35.25 C 44 35.25 44 35.5 44.25 35.5 L 46.25 36 C 46.25 36 46.5 36 46.5 36.25 L 46 38.25 C 46 38.25 46 38.5 45.75 38.5 L 44.75 38 C 44.75 38 44.5 38 44.5 38.25 L 44 39.25 C 44 39.25 44 39.5 44.25 39.5 L 51.25 40 C 51.25 40 51.5 40 51.5 39.75 L 52 38.75 C 52 38.75 52 38.5 51.75 38.5 L 47.75 38 C 47.75 38 47.5 38 47.5 37.75 L 48 35.75 C 48 35.75 48 35.5 48.25 35.5 L 51.25 36 C 51.25 36 51.5 36 51.5 35.75 L 52 34.75 C 52 34.75 52 34.5 51.75 34.5 L 49.75 34 C 49.75 34 49.5 34 49.5 33.75 L 50 30.75 C 50 30.75 50 30.5 49.75 30.5 L 48.75 30M 24.75 32 C 24.75 32 24.5 32 24.5 32.25 L 24 35.25 C 24 35.25 24 35.5 24.25 35.5 L 25.25 36 C 25.25 36 25.5 36 25.5 35.75 L 26 32.75 C 26 32.75 26 32.5 25.75 32.5 L 24.75 32M 52.75 32 C 52.75 32 52.5 32 52.5 32.25 L 52 33.25 C 52 33.25 52 33.5 52.25 33.5 L 53.25 34 C 53.25 34 53.5 34 53.5 33.75 L 54 32.75 C 54 32.75 54 32.5 53.75 32.5 L 52.75 32M 16.75 34 C 16.75 34 16.5 34 16.5 34.25 L 16 35.25 C 16 35.25 16 35.5 16.25 35.5 L 17.25 36 C 17.25 36 17.5 36 17.5 35.75 L 18 34.75 C 18 34.75 18 34.5 17.75 34.5 L 16.75 34M 38.75 34 C 38.75 34 38.5 34 38.5 34.25 L 38 35.25 C 38 35.25 38 35.5 38.25 35.5 L 39.25 36 C 39.25 36 39.5 36 39.5 35.75 L 40 34.75 C 40 34.75 40 34.5 39.75 34.5 L 38.75 34M 54.75 34 C 54.75 34 54.5 34 54.5 34.25 L 54 35.25 C 54 35.25 54 35.5 54.25 35.5 L 55.25 36 C 55.25 36 55.5 36 55.5 35.75 L 56 34.75 C 56 34.75 56 34.5 55.75 34.5 L 54.75 34M 14.75 36 C 14.75 36 14.5 36 14.5 36.25 L 14 37.25 C 14 37.25 14 37.5 14.25 37.5 L 15.25 38 C 15.25 38 15.5 38 15.5 37.75 L 16 36.75 C 16 36.75 16 36.5 15.75 36.5 L 14.75 36M 40.75 36 C 40.75 36 40.5 36 40.5 36.25 L 40 37.25 C 40 37.25 40 37.5 40.25 37.5 L 41.25 38 C 41.25 38 41.5 38 41.5 37.75 L 42 36.75 C 42 36.75 42 36.5 41.75 36.5 L 40.75 36M 52.75 36 C 52.75 36 52.5 36 52.5 36.25 L 52 37.25 C 52 37.25 52 37.5 52.25 37.5 L 53.25 38 C 53.25 38 53.5 38 53.5 37.75 L 54 36.75 C 54 36.75 54 36.5 53.75 36.5 L 52.75 36M 22.75 40 C 22.75 40 22.5 40 22.5 40.25 L 22 42.25 C 22 42.25 22 42.5 21.75 42.5 L 20.75 42 C 20.75 42 20.5 42 20.5 42.25 L 20 44.25 C 20 44.25 20 44.5 19.75 44.5 L 14.75 44 C 14.75 44 14.5 44 14.5 44.25 L 14 45.25 C 14 45.25 14 45.5 14.25 45.5 L 16.25 46 C 16.25 46 16.5 46 16.5 46.25 L 16 47.25 C 16 47.25 16 47.5 16.25 47.5 L 23.25 48 C 23.25 48 23.5 48 23.5 47.75 L 24 46.75 C 24 46.75 24 46.5 23.75 46.5 L 21.75 46 C 21.75 46 21.5 46 21.5 45.75 L 22 43.75 C 22 43.75 22 43.5 22.25 43.5 L 27.25 44 C 27.25 44 27.5 44 27.5 43.75 L 28 42.75 C 28 42.75 28 42.5 27.75 42.5 L 25.75 42 C 25.75 42 25.5 42 25.5 41.75 L 26 40.75 C 26 40.75 26 40.5 25.75 40.5 L 22.75 40M 52.75 40 C 52.75 40 52.5 40 52.5 40.25 L 52 41.25 C 52 41.25 52 41.5 52.25 41.5 L 53.25 42 C 53.25 42 53.5 42 53.5 41.75 L 54 40.75 C 54 40.75 54 40.5 53.75 40.5 L 52.75 40M 30.75 42 C 30.75 42 30.5 42 30.5 42.25 L 30 45.25 C 30 45.25 30 45.5 30.25 45.5 L 33.25 46 C 33.25 46 33.5 46 33.5 45.75 L 34 44.75 C 34 44.75 34 44.5 33.75 44.5 L 31.75 44 C 31.75 44 31.5 44 31.5 43.75 L 32 42.75 C 32 42.75 32 42.5 31.75 42.5 L 30.75 42M 34.75 42 C 34.75 42 34.5 42 34.5 42.25 L 34 43.25 C 34 43.25 34 43.5 34.25 43.5 L 35.25 44 C 35.25 44 35.5 44 35.5 43.75 L 36 42.75 C 36 42.75 36 42.5 35.75 42.5 L 34.75 42M 10.75 46 C 10.75 46 10.5 46 10.5 46.25 L 10 49.25 C 10 49.25 10 49.5 10.25 49.5 L 11.25 50 C 11.25 50 11.5 50 11.5 49.75 L 12 47.75 C 12 47.75 12 47.5 12.25 47.5 L 13.25 48 C 13.25 48 13.5 48 13.5 47.75 L 14 46.75 C 14 46.75 14 46.5 13.75 46.5 L 10.75 46M 26.75 46 C 26.75 46 26.5 46 26.5 46.25 L 26 49.25 C 26 49.25 26 49.5 26.25 49.5 L 29.25 50 C 29.25 50 29.5 50 29.5 49.75 L 30 48.75 C 30 48.75 30 48.5 29.75 48.5 L 27.75 48 C 27.75 48 27.5 48 27.5 47.75 L 28 46.75 C 28 46.75 28 46.5 27.75 46.5 L 26.75 46M 14.75 48 C 14.75 48 14.5 48 14.5 48.25 L 14 49.25 C 14 49.25 14 49.5 14.25 49.5 L 15.25 50 C 15.25 50 15.5 50 15.5 49.75 L 16 48.75 C 16 48.75 16 48.5 15.75 48.5 L 14.75 48M 18.75 50 C 18.75 50 18.5 50 18.5 50.25 L 18 51.25 C 18 51.25 18 51.5 18.25 51.5 L 19.25 52 C 19.25 52 19.5 52 19.5 51.75 L 20 50.75 C 20 50.75 20 50.5 19.75 50.5 L 18.75 50M 38.75 50 C 38.75 50 38.5 50 38.5 50.25 L 38 51.25 C 38 51.25 38 51.5 38.25 51.5 L 39.25 52 C 39.25 52 39.5 52 39.5 51.75 L 40 50.75 C 40 50.75 40 50.5 39.75 50.5 L 38.75 50M 60.75 50 C 60.75 50 60.5 50 60.5 50.25 L 60 51.25 C 60 51.25 60 51.5 60.25 51.5 L 62.25 52 C 62.25 52 62.5 52 62.5 52.25 L 62 54.25 C 62 54.25 62 54.5 61.75 54.5 L 60.75 54 C 60.75 54 60.5 54 60.5 54.25 L 60 55.25 C 60 55.25 60 55.5 60.25 55.5 L 63.25 56 C 63.25 56 63.5 56 63.5 55.75 L 64 50.75 C 64 50.75 64 50.5 63.75 50.5 L 60.75 50M 52.75 52 C 52.75 52 52.5 52 52.5 52.25 L 52 57.25 C 52 57.25 52 57.5 52.25 57.5 L 57.25 58 C 57.25 58 57.5 58 57.5 57.75 L 58 52.75 C 58 52.75 58 52.5 57.75 52.5 L 52.75 52M 48.75 58 C 48.75 58 48.5 58 48.5 58.25 L 48 60.25 C 48 60.25 48 60.5 47.75 60.5 L 44.75 60 C 44.75 60 44.5 60 44.5 60.25 L 44 63.25 C 44 63.25 44 63.5 44.25 63.5 L 45.25 64 C 45.25 64 45.5 64 45.5 63.75 L 46 61.75 C 46 61.75 46 61.5 46.25 61.5 L 51.25 62 C 51.25 62 51.5 62 51.5 61.75 L 52 60.75 C 52 60.75 52 60.5 51.75 60.5 L 49.75 60 C 49.75 60 49.5 60 49.5 59.75 L 50 58.75 C 50 58.75 50 58.5 49.75 58.5 L 48.75 58M 50.75 64 C 50.75 64 50.5 64 50.5 64.25 L 50 65.25 C 50 65.25 50 65.5 50.25 65.5 L 51.25 66 C 51.25 66 51.5 66 51.5 65.75 L 52 64.75 C 52 64.75 52 64.5 51.75 64.5 L 50.75 64 z" fill="#A40F4C" stroke-width="0"/><path id="p2" class="q-sq" d="M 2 53.75 C 2 53.75 2 53.5 2.25 53.5 L 16.25 54 C 16.25 54 16.5 54 16.5 54.25 L 16 68.25 C 16 68.25 16 68.5 15.75 68.5 L 1.75 68 C 1.75 68 1.5 68 1.5 67.75 L 2 53.75M 4.75 56 C 4.75 56 4.5 56 4.5 56.25 L 4 65.25 C 4 65.25 4 65.5 4.25 65.5 L 13.25 66 C 13.25 66 13.5 66 13.5 65.75 L 14 56.75 C 14 56.75 14 56.5 13.75 56.5 L 4.75 56 z" stroke-width="0" fill="url(#g_color6)"/><path id="p3" class="q-sqf" d="M 6 5.75 C 6 5.75 6 5.5 6.25 5.5 L 12.25 6 C 12.25 6 12.5 6 12.5 6.25 L 12 12.25 C 12 12.25 12 12.5 11.75 12.5 L 5.75 12 C 5.75 12 5.5 12 5.5 11.75 L 6 5.75 z" stroke-width="0" fill="url(#g_color5)"/><path id="p4" class="q-sqf" d="M 6 57.75 C 6 57.75 6 57.5 6.25 57.5 L 12.25 58 C 12.25 58 12.5 58 12.5 58.25 L 12 64.25 C 12 64.25 12 64.5 11.75 64.5 L 5.75 64 C 5.75 64 5.5 64 5.5 63.75 L 6 57.75 z" stroke-width="0" fill="url(#g_color5)"/><path id="p5" d="M 8 35.75 C 8 35.75 8 35.5 8.25 35.5 L 10.25 36 C 10.25 36 10.5 36 10.5 36.25 L 10 40.25 C 10 40.25 10 40.5 9.75 40.5 L 7.75 40 C 7.75 40 7.5 40 7.5 39.75 L 8 35.75 z" fill="#A40F4C" stroke-width="0"/><path id="p6" class="q-one" d="M 20 65.75 C 20 65.75 20 65.5 20.25 65.5 L 22.25 66 C 22.25 66 22.5 66 22.5 66.25 L 22 68.25 C 22 68.25 22 68.5 21.75 68.5 L 19.75 68 C 19.75 68 19.5 68 19.5 67.75 L 20 65.75 z" stroke-width="0" fill="url(#g_color4)"/><path id="p7" class="q-one" d="M 30 65.75 C 30 65.75 30 65.5 30.25 65.5 L 32.25 66 C 32.25 66 32.5 66 32.5 66.25 L 32 68.25 C 32 68.25 32 68.5 31.75 68.5 L 29.75 68 C 29.75 68 29.5 68 29.5 67.75 L 30 65.75 z" stroke-width="0" fill="url(#g_color4)"/><path id="p8" class="q-sq" d="M 54 1.75 C 54 1.75 54 1.5 54.25 1.5 L 68.25 2 C 68.25 2 68.5 2 68.5 2.25 L 68 16.25 C 68 16.25 68 16.5 67.75 16.5 L 53.75 16 C 53.75 16 53.5 16 53.5 15.75 L 54 1.75M 56.75 4 C 56.75 4 56.5 4 56.5 4.25 L 56 13.25 C 56 13.25 56 13.5 56.25 13.5 L 65.25 14 C 65.25 14 65.5 14 65.5 13.75 L 66 4.75 C 66 4.75 66 4.5 65.75 4.5 L 56.75 4 z" stroke-width="0" fill="url(#g_color6)"/><path id="p9" class="q-one" d="M 54 53.75 C 54 53.75 54 53.5 54.25 53.5 L 56.25 54 C 56.25 54 56.5 54 56.5 54.25 L 56 56.25 C 56 56.25 56 56.5 55.75 56.5 L 53.75 56 C 53.75 56 53.5 56 53.5 55.75 L 54 53.75 z" stroke-width="0" fill="url(#g_color4)"/><path id="p10" class="q-sqf" d="M 58 5.75 C 58 5.75 58 5.5 58.25 5.5 L 64.25 6 C 64.25 6 64.5 6 64.5 6.25 L 64 12.25 C 64 12.25 64 12.5 63.75 12.5 L 57.75 12 C 57.75 12 57.5 12 57.5 11.75 L 58 5.75 z" stroke-width="0" fill="url(#g_color5)"/><path id="p11" d="M 60 63.75 C 60 63.75 60 63.5 60.25 63.5 L 62.25 64 C 62.25 64 62.5 64 62.5 64.25 L 62 65.25 C 62 65.25 62 65.5 62.25 65.5 L 66.25 66 C 66.25 66 66.5 66 66.5 66.25 L 66 68.25 C 66 68.25 66 68.5 65.75 68.5 L 61.75 68 C 61.75 68 61.5 68 61.5 67.75 L 62 66.75 C 62 66.75 62 66.5 61.75 66.5 L 59.75 66 C 59.75 66 59.5 66 59.5 65.75 L 60 63.75 z" fill="#A40F4C" stroke-width="0"/><g id="qr-images"/></g></svg>